inDegrees=no
num_controls=7
num_derivatives=13
num_iterations=84
num_multipliers=7
num_parameters=0
num_slacks=7
num_states=26
objective=0.333904
objective_accelerations=0.036698
objective_balance=0.001333
objective_effort=0.027060
objective_height=0.267341
objective_ligament=0.001473
solver_duration=866.281099
status=Solve_Succeeded
success=true
DataType=double
version=3
OpenSimVersion=4.5
endheader
time	/jointset/ground_pelvis/pelvis_tilt/value	/jointset/ground_pelvis/pelvis_tx/value	/jointset/ground_pelvis/pelvis_ty/value	/jointset/hip_r/hip_flexion_r/value	/jointset/hip_r/hip_adduction_r/value	/jointset/hip_r/hip_rotation_r/value	/jointset/back/lumbar_extension/value	/jointset/patellofemoral_r/patellar_flexion_r/value	/jointset/knee_r/knee_flexion_r/value	/jointset/knee_r/knee_adduction_r/value	/jointset/knee_r/knee_rotation_r/value	/jointset/ankle_r/ankle_angle_r/value	/jointset/subtalar_r/subtalar_angle_r/value	/jointset/ground_pelvis/pelvis_tilt/speed	/jointset/ground_pelvis/pelvis_tx/speed	/jointset/ground_pelvis/pelvis_ty/speed	/jointset/hip_r/hip_flexion_r/speed	/jointset/hip_r/hip_adduction_r/speed	/jointset/hip_r/hip_rotation_r/speed	/jointset/back/lumbar_extension/speed	/jointset/patellofemoral_r/patellar_flexion_r/speed	/jointset/knee_r/knee_flexion_r/speed	/jointset/knee_r/knee_adduction_r/speed	/jointset/knee_r/knee_rotation_r/speed	/jointset/ankle_r/ankle_angle_r/speed	/jointset/subtalar_r/subtalar_angle_r/speed	/forceset/tau_hip_flexion_r	/forceset/tau_hip_adduction_r	/forceset/tau_hip_rotation_r	/forceset/tau_knee_flexion_r	/forceset/tau_ankle_angle_r	/forceset/tau_subtalar_angle_r	/forceset/tau_lumbar_extension	lambda_cid13_p0	lambda_cid14_p0	lambda_cid14_p1	lambda_cid14_p2	lambda_cid14_p3	lambda_cid14_p4	lambda_cid14_p5	/jointset/ground_pelvis/pelvis_tilt/accel	/jointset/ground_pelvis/pelvis_tx/accel	/jointset/ground_pelvis/pelvis_ty/accel	/jointset/hip_r/hip_flexion_r/accel	/jointset/hip_r/hip_adduction_r/accel	/jointset/hip_r/hip_rotation_r/accel	/jointset/back/lumbar_extension/accel	/jointset/patellofemoral_r/patellar_flexion_r/accel	/jointset/knee_r/knee_flexion_r/accel	/jointset/knee_r/knee_adduction_r/accel	/jointset/knee_r/knee_rotation_r/accel	/jointset/ankle_r/ankle_angle_r/accel	/jointset/subtalar_r/subtalar_angle_r/accel	gamma_cid13_p0	gamma_cid14_p0	gamma_cid14_p1	gamma_cid14_p2	gamma_cid14_p3	gamma_cid14_p4	gamma_cid14_p5
1	-0.2790027815950164	-0.008321984981481505	0.633449103303964	1.465505404041796	-0.2375684213923588	-0.0885339312126896	-0.785392885734254	1.503250658961193	1.503250658961189	-0.1744200409286093	0.1727797800815255	0.4362328864375262	0.1772003079131572	0.06901608360454572	0.006733860676031197	0.01640893563976882	-0.1032707722810338	-0.002116404598580745	0.007395394545544308	-6.626863608412883e-05	-0.01845078234286038	-0.01845078234286043	0.01558663512591033	0.0002603424719598245	0.01452577324739361	0.003338837376622865	-0.3629784413897658	0.04837034910978652	0.007478489167542862	-0.4308746968751318	-0.04739724797042389	0.00076428143588794	0.3737601406461485	-0.04112608629620744	-67.5093857601414	-16.15749712770225	8.331024545750145	8.434617761920132	-772.5949821003791	53.2861410501573	1.455049632100029	0.1675922965273673	1.856696727328961	-5.682439870579056	0.2158920031862049	-0.3113903503723743	-0.004974331394234582	-5.051004254704832	-5.051004254704833	1.040990674801294	0.03423885942499399	-1.01635800741563	-0.1105944605692973	1.319023452580354e-09	1.659332098990033e-09	1.684702915721784e-08	1.475222755129785e-08	-1.878588978436458e-09	-4.433525998790357e-09	3.217538906780741e-08
1.01	-0.2782408608402372	-0.008246120210909536	0.6337058131553012	1.464189746607211	-0.2375789419200382	-0.08847298069565379	-0.7853913377248045	1.502814248231762	1.502814248231767	-0.1742094801290537	0.1727838923724781	0.4363275279686446	0.1772279205973235	0.08333759217170268	0.008457702572716795	0.03492457563769186	-0.1598366348103382	4.402075875430013e-06	0.004794322126389782	0.000543303945225968	-0.06881026914544211	-0.06881026914544178	0.02652848209260406	0.0005663946601723281	0.004429483686872113	0.002182583221164454	-0.3636457802323608	0.0483931577200262	0.007535136612517606	-0.4306746433649859	-0.04770462499294902	0.0007785821200217161	0.3746988201811086	-0.04111954002641617	-67.62470174245325	-16.16335109515322	8.322675924340555	8.229093918651403	-773.0359236664596	53.28227850268134	1.416132303079173	0.1775704963111587	1.847726583572916	-5.640045516446669	0.2089979534856036	-0.2345194609609749	0.1190380685321813	-5.025258077972222	-5.025258077972243	1.12122446117837	0.02944595303579537	-1.002222171833246	-0.1182938966477379	6.669485002350942e-09	9.314372148937601e-09	4.825495190957059e-08	5.754041855828669e-08	-5.019805579683489e-09	-1.095404257674952e-08	1.032715738307852e-07
1.02	-0.2773366388329735	-0.008152458949356709	0.6341474251961273	1.462309153332859	-0.2375684897901953	-0.08843805165745811	-0.7853786709865459	1.501874875197318	1.501874875197335	-0.1738894123091276	0.1727911966962138	0.4363220150558594	0.1772439401392114	0.09747633410108052	0.01029315887220243	0.05338937353758991	-0.2162579402332701	0.002078126906747218	0.002191098776275861	0.002157477152082773	-0.1190432433455188	-0.119043243345518	0.03748803920229871	0.0008987490290392201	-0.005505115532161041	0.001020208921163062	-0.3643131190749815	0.04841596633025452	0.007591784057485856	-0.4304745898548382	-0.04801200201547006	0.0007928828041364075	0.3756374997160462	-0.04111923559911412	-67.74708096836045	-16.16441721772277	8.30668205453031	8.020286185778252	-773.6014884236801	53.31910717379299	1.41849630454415	0.1899151770874541	1.846528307723971	-5.653528449304605	0.206475634469303	-0.3118205365642508	0.1959457937153813	-5.025701734203784	-5.025701734203776	1.044532703401496	0.03949929555588038	-0.9840199391178062	-0.1118184894778571	1.215949826600563e-08	1.756955457883729e-08	7.77019992122098e-08	9.871710087705639e-08	-9.956720980227744e-09	-1.789711630175738e-08	1.730101563598411e-07
1.03	-0.2762920736904439	-0.008039965744467033	0.6347734064355919	1.459865327278877	-0.2375375024481253	-0.08842915407681122	-0.7853449967608988	1.500433607189487	1.500433607189496	-0.1734596137617976	0.1728019307992124	0.4362176114627326	0.1772481863627756	0.111391629918408	0.01221608950521743	0.07179581403908464	-0.2724559362939605	0.004114780517445579	-0.0004065115580968102	0.004731194778402656	-0.1692087129523054	-0.1692087129523045	0.04848363415204321	0.001249106187589014	-0.01538402401284091	-0.0001840865622895917	-0.3646028673458491	0.04849041814829851	0.007711355035508788	-0.4300621060490933	-0.04848157551202435	0.0007899871660339953	0.3762348526729423	-0.04113949285317174	-67.91030660280553	-16.17638051701608	8.288173251890848	8.012473698461095	-773.8624419498685	53.3146218104139	1.37129180047903	0.195070103697684	1.836037862914835	-5.595230106582014	0.2015940756398177	-0.2329591251410851	0.3111587674752997	-5.011726347237406	-5.011726347237464	1.128864228979007	0.03299672465591916	-0.9910892952642887	-0.1266699865447151	1.765093552674077e-08	2.583086091057323e-08	1.071290375816887e-07	1.398773392296197e-07	-1.491195983790769e-08	-2.484450183438819e-08	2.427348858048773e-07
